<?xml version="1.0" encoding="UTF-8"?>
<svg id="_레이어_2" data-name="레이어 2" xmlns="http://www.w3.org/2000/svg" xmlns:xlink="http://www.w3.org/1999/xlink" viewBox="0 0 172.59 229.38">
  <defs>
    <style>
      .cls-1 {
        fill: #f6bec5;
        stroke-width: 1.34px;
      }

      .cls-1, .cls-2, .cls-3, .cls-4, .cls-5 {
        stroke: #6d3f00;
      }

      .cls-1, .cls-4 {
        stroke-miterlimit: 10;
      }

      .cls-2, .cls-3, .cls-4 {
        fill: #fff;
      }

      .cls-2, .cls-3, .cls-5 {
        stroke-linecap: round;
        stroke-linejoin: round;
      }

      .cls-2, .cls-5 {
        stroke-width: 2px;
      }

      .cls-3 {
        stroke-width: 1.98px;
      }

      .cls-4 {
        stroke-width: 1.34px;
      }

      .cls-6 {
        fill: url(#_무제_그라디언트_103);
      }

      .cls-7 {
        fill: url(#_무제_그라디언트_103-2);
      }

      .cls-8 {
        fill: #005594;
      }

      .cls-9 {
        fill: #006fbc;
      }

      .cls-5 {
        fill: #fef0dd;
      }

      .cls-10 {
        fill: #2c8ac8;
      }

      .cls-11 {
        fill: #6d3f00;
      }
    </style>
    <radialGradient id="_무제_그라디언트_103" data-name="무제 그라디언트 103" cx="4260.76" cy="440.25" fx="4260.76" fy="440.25" r="14.15" gradientTransform="translate(-4163.37 126.15) rotate(-6.81)" gradientUnits="userSpaceOnUse">
      <stop offset="0" stop-color="#f5c1ca" stop-opacity=".8"/>
      <stop offset=".26" stop-color="#f6cacd" stop-opacity=".83"/>
      <stop offset=".76" stop-color="#fbe4d8" stop-opacity=".91"/>
      <stop offset="1" stop-color="#fef2de" stop-opacity=".95"/>
    </radialGradient>
    <radialGradient id="_무제_그라디언트_103-2" data-name="무제 그라디언트 103" cx="4197.76" cy="440.25" fx="4197.76" fy="440.25" r="14.15" xlink:href="#_무제_그라디언트_103"/>
  </defs>
  <g id="_레이어_1-2" data-name="레이어 1">
    <g>
      <path class="cls-5" d="M79.57,185.82l8.27,37.25c.38,3.03,2.95,5.3,6.01,5.3h29.4c8.75,0,7.98-8.66,7.98-8.66,0-5.12-5.1-7.98-5.1-7.98-4.24-2.17-3.26-7.21-3.26-7.21l2.52-13.01c13.52-55.62-2.67-95.2-4.96-100.11l-57.65-3.92c-1.9,4.04-32.82,76.67-32.82,76.67-6.22,16.83-3.6,28.66-12.67,28.66,0,0-6.01.95-7.04,7.98,0,0-1.24,5.79,7.98,8.66l23.01,8.35c3.41,1.24,7.21-.04,9.18-3.08,6.28-9.64,18.73-32.27,18.73-32.27l10.4,3.37Z"/>
      <path class="cls-5" d="M26.08,46.81s-8.98-10.27-20.63-1.25c-5.95,4.6-10.2,17.2,16.51,39.7,9.16,7.71,19.79,13.54,31.34,16.66.93.25,1.8.47,2.64.66,8.48,1.94,13.13-9.52,5.77-14.16-6.25-3.94-14.12-10.53-20.73-24.89,0,0-3.4-8.04-5-11.27-2.12-4.29-6.31-6.42-10.16-3.44-2.14,1.66-4.78,4.86.23,10.65"/>
      <path class="cls-5" d="M144.67,43.31s4.45-12.9,18.64-8.93c7.8,2.18,15.23,14.97-3.29,48.16-5.58,10-14.43,17.94-25.22,21.75-8.79,3.1-16.65,2.88-18.04-1.3-.53-7.6,22.41-20.23,20.4-38.58,0,0,.12-8.73.38-12.32.35-4.78,3.43-8.32,8.12-7.01,2.61.73,6.26,2.7,3.8,9.96"/>
      <path class="cls-2" d="M166.15,78.6l-30.85-20.66-14.52,24.36-33.08,33.86-25.86-31.81s-8.84-5.98-23-25.78l-27.75,22.13c8.63,11.03,31.78,24.72,31.78,24.72-4.28,9.01-10.55,26.35-25.14,66.35,0,0,8.66,16.27,56.78,22.17,48.12,5.9,59.18-2.72,59.18-2.72,2.39-32.35,1.65-63.61-1.34-76.26,13.98-5.28,31.64-29.15,33.78-36.36Z"/>
      <g>
        <polygon class="cls-2" points="60.23 80.34 86.25 114.87 66.55 114.96 68 102.5 54.7 101.02 60.23 80.34"/>
        <polygon class="cls-2" points="15.53 89.83 23.6 82.59 19.98 78.6 11.91 85.84 15.53 89.83"/>
        <polygon class="cls-2" points="115.87 86.48 89.33 115.11 108.78 118.27 109.28 105.73 122.66 106.35 115.87 86.48"/>
        <polygon class="cls-2" points="163.33 88.66 154.05 83.06 156.86 78.46 166.14 84.06 163.33 88.66"/>
        <path class="cls-3" d="M101.57,123.88h20.2v19.35c0,1.28-1.04,2.32-2.32,2.32h-15.56c-1.28,0-2.32-1.04-2.32-2.32v-19.35h0Z" transform="translate(14.55 -10.84) rotate(5.94)"/>
        <g>
          <g>
            <path class="cls-9" d="M106.04,135.61l.17.03c-.05,1.07.59,1.22.85,1.24.68.06.81-.6.82-.72.07-.81-1.39-1.27-1.31-2.27.05-.63.53-1.19,1.34-1.12.35.03.68.24.86.26.02,0,.19.02.28-.14h.18s-.34,1.24-.34,1.24l-.16-.04c0-.35-.03-1.04-.72-1.1-.62-.05-.67.54-.68.61-.04.48.34.59.86,1.18.25.29.49.67.45,1.11-.07.82-.59,1.28-1.53,1.2-.46-.04-.79-.28-.96-.3-.15-.01-.19.06-.26.2h-.18s.33-1.39.33-1.39Z"/>
            <path class="cls-9" d="M112.91,134.64l-.19-.05c.02-.07.03-.14.03-.21.05-.6-.2-1.01-.72-1.05-.98-.08-1.82,1.47-1.91,2.57-.09,1.11.7,1.17.78,1.18.48.04.88-.09,1.37-.63l.17.15c-.35.45-.94.85-1.73.79-.79-.06-1.61-.61-1.52-1.74.11-1.38,1.23-2.68,2.71-2.56.52.04.85.25.99.26.13.01.19-.07.26-.16h.18s-.43,1.44-.43,1.44Z"/>
            <path class="cls-9" d="M116.04,137.71l-3.36-.27v-.15c.28-.02.41-.06.54-.41l.98-2.73s.08-.26.09-.34c.02-.2-.04-.21-.42-.3v-.16s1.94.16,1.94.16v.16c-.35,0-.53.03-.66.4l-1.03,2.9c-.04.11-.04.16-.05.2,0,.06-.02.19.38.22.73.06,1.43-.15,1.91-.89l.14.04-.46,1.17Z"/>
          </g>
          <path class="cls-8" d="M113.82,131.25c1.1.05,3.08.31,4.41,1.15.16.1.3.25.29.44,0,.23-.22.43-.48.4-.09-.01-.26-.1-.41-.22h0s0,0,0,0c0,0-1.2-1.2-3.48-1.47-2.23-.26-2.91-.06-2.92-.07.6-.13,1.46-.28,2.6-.23Z"/>
          <path class="cls-10" d="M114.83,131.33c-1.1-.13-3.09-.19-4.54.43-.17.07-.3.21-.32.4-.03.23.15.42.41.43.09,0,.24-.04.4-.13h0s0,0,0,0c0,0,1.38-.99,3.68-.88,2.24.1,2.88.41,2.89.41-.57-.22-1.4-.51-2.53-.65Z"/>
        </g>
        <path class="cls-3" d="M90.06,132.5c-.19,1.29.68,2.48,1.94,2.66,1.26.18,2.43-.71,2.62-2,.19-1.29-.68-2.48-1.94-2.66-1.26-.18-2.43.71-2.62,2Z"/>
        <path class="cls-3" d="M87.1,152.68c-.19,1.29.68,2.48,1.94,2.66,1.26.18,2.43-.71,2.62-2,.19-1.29-.68-2.48-1.94-2.66-1.26-.18-2.43.71-2.62,2Z"/>
        <path class="cls-3" d="M84.15,172.86c-.19,1.29.68,2.48,1.94,2.66s2.43-.71,2.62-2c.19-1.29-.68-2.48-1.94-2.66-1.26-.18-2.43.71-2.62,2Z"/>
      </g>
      <g>
        <g>
          <g>
            <g>
              <g>
                <path class="cls-5" d="M138.6,5.03c-11.85-9.59-26.83.57-30.88,3.68,13.73,5.66,24.41,16.94,28.44,31.17,3.19-2.92,7.08-6.6,8.44-8.44,2.46-3.33,7.82-15.21-6.01-26.41Z"/>
                <circle class="cls-4" cx="126" cy="21.02" r="8.97"/>
              </g>
              <g>
                <path class="cls-5" d="M56.27,14.54c-5.34-2.27-21.4-7.73-30.32,3.94-10.8,14.14-2.79,24.43.38,27.08,1.6,1.34,5.59,3.66,9.15,5.64.79-14.72,8.68-28.07,20.79-36.66Z"/>
                <circle class="cls-4" cx="40.28" cy="31.25" r="9.62" transform="translate(-3.42 5) rotate(-6.81)"/>
              </g>
            </g>
            <ellipse class="cls-5" cx="87.19" cy="52.95" rx="51.29" ry="48.25" transform="translate(-5.66 10.71) rotate(-6.81)"/>
            <g>
              <path class="cls-6" d="M133.59,56.4c.93,7.76-4.61,14.8-12.37,15.73-7.76.93-14.8-4.61-15.73-12.37-.93-7.76,4.61-14.8,12.37-15.73,7.76-.93,14.8,4.61,15.73,12.37Z"/>
              <path class="cls-7" d="M71.02,63.87c.93,7.76-4.61,14.8-12.37,15.73-7.76.93-14.8-4.61-15.73-12.37-.93-7.76,4.61-14.8,12.37-15.73,7.76-.93,14.8,4.61,15.73,12.37Z"/>
            </g>
          </g>
          <g>
            <ellipse class="cls-4" cx="89.38" cy="66.62" rx="21.22" ry="16.76" transform="translate(-7.27 11.07) rotate(-6.81)"/>
            <ellipse class="cls-11" cx="88.05" cy="55.5" rx="6.73" ry="4.13" transform="translate(-5.96 10.83) rotate(-6.81)"/>
          </g>
          <path class="cls-1" d="M99.92,62.14c.56-.07,1.05.19,1.08.58.22,2.2.38,9.22-10.52,10.52-11.3,1.35-13.33-5.49-13.55-7.67-.04-.38.37-.74.92-.8l22.06-2.63Z"/>
        </g>
        <path class="cls-11" d="M99.51,44.6c.17,2.06,1.49,3.64,2.95,3.52s2.52-1.88,2.35-3.95c-.17-2.06-1.49-3.64-2.95-3.52-1.46.12-2.52,1.88-2.35,3.95Z"/>
        <path class="cls-11" d="M68.67,47.08c.17,2.06,1.49,3.64,2.95,3.52,1.46-.12,2.52-1.88,2.35-3.95-.17-2.06-1.49-3.64-2.95-3.52-1.46.12-2.52,1.88-2.35,3.95Z"/>
      </g>
      <line class="cls-2" x1="87.71" y1="116.15" x2="74.53" y2="193.94"/>
    </g>
  </g>
</svg>