<?xml version="1.0" encoding="UTF-8"?>
<svg id="_레이어_2" data-name="레이어 2" xmlns="http://www.w3.org/2000/svg" viewBox="0 0 1001 200.81">
  <defs>
    <style>
      .cls-1 {
        fill: #adcecf;
      }

      .cls-2 {
        fill: #efefef;
      }

      .cls-2, .cls-3 {
        font-family: Tenada, Tenada;
        font-size: 67.77px;
      }

      .cls-4 {
        fill: #ccc;
      }

      .cls-5 {
        fill: #ededec;
      }

      .cls-6 {
        opacity: .8;
      }

      .cls-7 {
        fill: #3c546c;
      }

      .cls-3 {
        fill: #231815;
      }

      .cls-8 {
        stroke: #dedfdf;
        stroke-width: .5px;
      }

      .cls-8, .cls-9 {
        fill: #fff;
        stroke-miterlimit: 10;
      }

      .cls-10 {
        fill: #e6e6e5;
      }

      .cls-11 {
        fill: #f5b9c2;
      }

      .cls-12 {
        fill: #f6b9b1;
      }

      .cls-13 {
        fill: #071f38;
      }

      .cls-14 {
        fill: #cf9598;
      }

      .cls-15 {
        fill: #ec6c68;
      }

      .cls-16 {
        fill: #eb9050;
      }

      .cls-9 {
        stroke: #231815;
      }

      .cls-17 {
        fill: #5c92c0;
      }

      .cls-18 {
        fill: #d19f9a;
      }

      .cls-19 {
        fill: #7ab4e3;
      }
    </style>
  </defs>
  <g id="_레이어_1-2" data-name="레이어 1">
    <g>
      <rect class="cls-9" x=".5" y=".5" width="1000" height="199.81"/>
      <g class="cls-6">
        <g>
          <rect class="cls-7" x="522.04" y="-47.08" width="105.02" height="200.55" transform="translate(520.69 627.68) rotate(-89.93)"/>
          <polygon class="cls-7" points="674.75 105.86 574.4 158.21 474.2 105.63 674.75 105.86"/>
          <g>
            <rect class="cls-8" x="518.31" y="1.33" width="112.4" height="163.59" transform="translate(490.73 657.54) rotate(-89.93)"/>
            <g>
              <g>
                <rect class="cls-1" x="622.19" y="103.89" width="4.37" height="35.9" transform="translate(501.81 746.08) rotate(-89.93)"/>
                <rect class="cls-1" x="600.91" y="113.19" width="4.37" height="17.26" transform="translate(480.56 724.76) rotate(-89.93)"/>
                <rect class="cls-1" x="545.2" y="80.95" width="4.37" height="81.61" transform="translate(425 669) rotate(-89.93)"/>
              </g>
              <g>
                <rect class="cls-1" x="622.24" y="71.81" width="4.37" height="35.9" transform="translate(533.96 714.08) rotate(-89.93)"/>
                <rect class="cls-1" x="600.95" y="81.1" width="4.37" height="17.26" transform="translate(512.69 692.76) rotate(-89.93)"/>
                <rect class="cls-1" x="545.24" y="48.87" width="4.37" height="81.61" transform="translate(457.14 637) rotate(-89.93)"/>
              </g>
              <rect class="cls-1" x="591.25" y="56.91" width="4.37" height="97.82" transform="translate(486.93 699.14) rotate(-89.93)"/>
              <rect class="cls-1" x="520.48" y="89.67" width="4.37" height="32.13" transform="translate(416.33 628.29) rotate(-89.93)"/>
              <rect class="cls-1" x="572.28" y="45.9" width="4.37" height="135.75" transform="translate(460.04 688.1) rotate(-89.93)"/>
              <rect class="cls-1" x="572.3" y="29.91" width="4.37" height="135.75" transform="translate(476.04 672.16) rotate(-89.93)"/>
              <rect class="cls-1" x="545.7" y="48.41" width="4.37" height="82.52" transform="translate(457.59 637.45) rotate(-89.93)"/>
              <rect class="cls-1" x="545.71" y="39.65" width="4.37" height="82.52" transform="translate(466.37 628.71) rotate(-89.93)"/>
              <rect class="cls-1" x="533.68" y="41.39" width="4.37" height="58.43" transform="translate(464.66 606.39) rotate(-89.94)"/>
            </g>
          </g>
          <g>
            <polygon class="cls-19" points="474.35 .5 574.55 53.16 474.2 105.59 474.35 .5"/>
            <polygon class="cls-19" points="674.75 105.82 574.55 53.16 674.9 .73 674.75 105.82"/>
          </g>
          <polygon class="cls-17" points="674.9 .8 574.55 53.16 474.35 .57 674.9 .8"/>
        </g>
        <g>
          <path class="cls-5" d="M455.38,34.3c-3.27,0-5.92-2.64-5.93-5.91,0,3.27-2.64,5.92-5.91,5.93-3.27,0-5.93-2.64-5.93-5.91,0,3.27-2.64,5.92-5.91,5.93-3.27,0-5.93-2.64-5.93-5.91,0,3.27-2.64,5.93-5.91,5.93-3.27,0-5.93-2.64-5.93-5.91,0,3.27-2.64,5.92-5.91,5.93-3.27,0-5.92-2.64-5.93-5.91,0,3.27-2.64,5.92-5.91,5.93-3.27,0-5.93-2.64-5.93-5.91,0,3.27-2.64,5.92-5.91,5.93-3.27,0-5.93-2.64-5.93-5.91,0,3.27-2.64,5.92-5.91,5.93-3.27,0-5.93-2.64-5.93-5.91,0,3.27-2.64,5.93-5.91,5.93-3.27,0-5.93-2.64-5.93-5.91,0,3.27-2.64,5.92-5.91,5.93-3.27,0-5.92-2.64-5.93-5.91,0,3.27-2.64,5.93-5.91,5.93-3.27,0-5.93-2.64-5.93-5.91,0,3.27-2.64,5.92-5.91,5.93-3.27,0-5.93-2.64-5.93-5.91,0,3.27-2.64,5.92-5.91,5.93-3.27,0-5.93-2.64-5.93-5.91l.36,171.62,153.92-.32-.36-171.62c0,3.27-2.64,5.92-5.91,5.93Z"/>
          <g>
            <rect class="cls-4" x="317.4" y="43.6" width="133.34" height="23.11" transform="translate(-.11 .8) rotate(-.12)"/>
            <rect class="cls-4" x="317.44" y="74.74" width="133.34" height="7.01" transform="translate(-.16 .8) rotate(-.12)"/>
            <rect class="cls-4" x="317.57" y="136.55" width="133.34" height="7.01" transform="translate(-.29 .8) rotate(-.12)"/>
            <rect class="cls-4" x="317.51" y="87.49" width="48.57" height="43.5" transform="translate(-.23 .72) rotate(-.12)"/>
            <g>
              <rect class="cls-4" x="419.4" y="87.29" width="31.4" height="3.5" transform="translate(-.18 .91) rotate(-.12)"/>
              <rect class="cls-4" x="373.24" y="87.38" width="42.18" height="3.5" transform="translate(-.18 .82) rotate(-.12)"/>
              <rect class="cls-4" x="373.3" y="114.01" width="77.57" height="3.5" transform="translate(-.24 .86) rotate(-.12)"/>
              <g>
                <rect class="cls-4" x="373.31" y="120.74" width="10.84" height="3.5" transform="translate(-.25 .78) rotate(-.12)"/>
                <rect class="cls-4" x="412.09" y="120.63" width="38.78" height="3.5" transform="translate(-.27 .97) rotate(-.13)"/>
                <rect class="cls-4" x="388.13" y="120.7" width="19.98" height="3.5" transform="translate(-.25 .82) rotate(-.12)"/>
              </g>
              <polygon class="cls-4" points="436.12 127.29 436.13 130.79 432.15 130.8 432.14 127.3 398.39 127.37 398.4 130.87 394.42 130.88 394.41 127.38 373.32 127.42 373.33 130.92 450.89 130.76 450.88 127.26 436.12 127.29"/>
              <g>
                <rect class="cls-4" x="373.28" y="107.39" width="25.66" height="3.5" transform="translate(-.23 .82) rotate(-.12)"/>
                <rect class="cls-4" x="427.3" y="107.28" width="23.55" height="3.5" transform="translate(-.22 .88) rotate(-.11)"/>
                <rect class="cls-4" x="402.93" y="107.34" width="20.39" height="3.5" transform="translate(-.22 .85) rotate(-.12)"/>
              </g>
              <g>
                <rect class="cls-4" x="383.56" y="100.67" width="55.44" height="3.5" transform="translate(-.21 .85) rotate(-.12)"/>
                <rect class="cls-4" x="373.27" y="100.75" width="6.31" height="3.5" transform="translate(-.22 .8) rotate(-.12)"/>
                <rect class="cls-4" x="442.98" y="100.6" width="7.85" height="3.5" transform="translate(-.21 .92) rotate(-.12)"/>
              </g>
              <g>
                <rect class="cls-4" x="373.25" y="94.07" width="16.61" height="3.5" transform="translate(-.2 .8) rotate(-.12)"/>
                <rect class="cls-4" x="435.12" y="93.94" width="15.7" height="3.5" transform="translate(-.22 1.02) rotate(-.13)"/>
                <rect class="cls-4" x="393.85" y="94" width="37.29" height="3.5" transform="translate(-.19 .82) rotate(-.11)"/>
              </g>
            </g>
            <g>
              <rect class="cls-4" x="355.73" y="149.75" width="25.94" height="3.5" transform="translate(-.31 .76) rotate(-.12)"/>
              <rect class="cls-4" x="317.6" y="149.82" width="34.85" height="3.5" transform="translate(-.32 .7) rotate(-.12)"/>
              <rect class="cls-4" x="317.65" y="176.46" width="64.08" height="3.5" transform="translate(-.37 .73) rotate(-.12)"/>
              <g>
                <rect class="cls-4" x="317.67" y="183.18" width="8.95" height="3.5" transform="translate(-.39 .68) rotate(-.12)"/>
                <rect class="cls-4" x="349.7" y="183.09" width="32.04" height="3.5" transform="translate(-.42 .82) rotate(-.13)"/>
                <rect class="cls-4" x="329.91" y="183.15" width="16.5" height="3.5" transform="translate(-.4 .74) rotate(-.12)"/>
              </g>
              <polygon class="cls-4" points="369.56 189.75 369.57 193.25 366.27 193.26 366.27 189.75 338.39 189.81 338.4 193.32 335.11 193.32 335.1 189.82 317.68 189.86 317.68 193.36 381.76 193.23 381.75 189.72 369.56 189.75"/>
              <g>
                <rect class="cls-4" x="317.64" y="169.83" width="21.2" height="3.5" transform="translate(-.36 .7) rotate(-.12)"/>
                <rect class="cls-4" x="362.26" y="169.74" width="19.46" height="3.5" transform="translate(-.36 .79) rotate(-.12)"/>
                <rect class="cls-4" x="342.13" y="169.79" width="16.84" height="3.5" transform="translate(-.35 .72) rotate(-.12)"/>
              </g>
              <g>
                <rect class="cls-4" x="326.13" y="163.12" width="45.79" height="3.5" transform="translate(-.35 .74) rotate(-.12)"/>
                <rect class="cls-4" x="317.63" y="163.18" width="5.22" height="3.5" transform="translate(-.34 .66) rotate(-.12)"/>
                <rect class="cls-4" x="375.22" y="163.06" width="6.49" height="3.5" transform="translate(-.34 .78) rotate(-.12)"/>
              </g>
              <g>
                <rect class="cls-4" x="317.61" y="156.51" width="13.72" height="3.5" transform="translate(-.31 .65) rotate(-.11)"/>
                <rect class="cls-4" x="368.72" y="156.4" width="12.97" height="3.5" transform="translate(-.34 .8) rotate(-.12)"/>
                <rect class="cls-4" x="334.62" y="156.45" width="30.8" height="3.5" transform="translate(-.34 .74) rotate(-.12)"/>
              </g>
            </g>
            <g>
              <rect class="cls-4" x="390.06" y="189.68" width="24.94" height="3.5" transform="translate(-.4 .84) rotate(-.12)"/>
              <rect class="cls-4" x="418.16" y="189.61" width="33.5" height="3.5" transform="translate(-.4 .9) rotate(-.12)"/>
              <rect class="cls-4" x="390.01" y="162.97" width="61.59" height="3.5" transform="translate(-.34 .88) rotate(-.12)"/>
              <g>
                <rect class="cls-4" x="442.98" y="156.25" width="8.61" height="3.5" transform="translate(-.32 .92) rotate(-.12)"/>
                <rect class="cls-4" x="389.99" y="156.34" width="30.8" height="3.5" transform="translate(-.31 .81) rotate(-.11)"/>
                <rect class="cls-4" x="423.95" y="156.28" width="15.86" height="3.5" transform="translate(-.35 .97) rotate(-.13)"/>
              </g>
              <polygon class="cls-4" points="401.71 153.18 401.7 149.68 404.86 149.67 404.87 153.18 431.67 153.12 431.66 149.62 434.82 149.61 434.83 153.11 451.58 153.08 451.57 149.58 389.97 149.7 389.98 153.21 401.71 153.18"/>
              <g>
                <rect class="cls-4" x="431.24" y="169.6" width="20.38" height="3.5" transform="translate(-.35 .91) rotate(-.12)"/>
                <rect class="cls-4" x="390.02" y="169.69" width="18.7" height="3.5" transform="translate(-.35 .82) rotate(-.12)"/>
                <rect class="cls-4" x="411.88" y="169.64" width="16.19" height="3.5" transform="translate(-.35 .86) rotate(-.12)"/>
              </g>
              <g>
                <rect class="cls-4" x="399.43" y="176.31" width="44.02" height="3.5" transform="translate(-.37 .87) rotate(-.12)"/>
                <rect class="cls-4" x="446.61" y="176.25" width="5.01" height="3.5" transform="translate(-.37 .92) rotate(-.12)"/>
                <rect class="cls-4" x="390.03" y="176.36" width="6.23" height="3.5" transform="translate(-.37 .81) rotate(-.12)"/>
              </g>
              <g>
                <rect class="cls-4" x="438.45" y="182.92" width="13.19" height="3.5" transform="translate(-.38 .91) rotate(-.12)"/>
                <rect class="cls-4" x="390.05" y="183.03" width="12.47" height="3.5" transform="translate(-.36 .78) rotate(-.11)"/>
                <rect class="cls-4" x="405.68" y="182.97" width="29.61" height="3.5" transform="translate(-.43 .97) rotate(-.13)"/>
              </g>
            </g>
          </g>
        </g>
      </g>
      <g class="cls-6">
        <path class="cls-12" d="M950.74,99.18c-4.08-.53-8.17-1.01-12.27-1.44-1.31-.14-2.67-.27-3.92.14-.97.32-1.81.94-2.62,1.57-1.73,1.36-3.39,2.82-4.95,4.37-.82.81-1.66,1.76-1.68,2.91-.03,1.78,1.85,2.91,3.5,3.57,6.73,2.68,14.04,3.86,21.27,3.45,3.34-.19,6.78-.77,9.59-2.59,2.28-1.48,6.95-5.88,4.66-8.41-2.47-2.72-10.22-3.13-13.58-3.56Z"/>
        <path class="cls-13" d="M927.9,79.61h0c-10.05,4.01-21.56-.92-25.57-10.97l-2.19-5.47c-4.01-10.05.92-21.56,10.97-25.57h0c10.05-4.01,21.56.92,25.57,10.97l2.19,5.47c4.01,10.05-.92,21.56-10.97,25.57Z"/>
        <rect class="cls-13" x="933.66" y="66.91" width="17.68" height="98.49" rx="6.2" ry="6.2" transform="translate(24.17 357.95) rotate(-21.78)"/>
        <path class="cls-12" d="M992.88,125.06c-5.77-1.72-11.24-4.21-15.05-8.49-2.4-2.7-4.8-5.4-7.2-8.1-1.76-1.98-4.52-5.5-7.13-6.36-1.43-.47-2.99.02-4.43.46-7.9,2.4-15.77,3.12-23.99,2.72-4.82-.23-11.15-2.18-15.53.35-2.98,1.72-3.62,6.42-1.21,8.88-1.5,1.42-1.83,3.82-1.09,5.75.74,1.93,2.4,3.41,4.28,4.29-2.4,3.57-.9,9.12,2.97,11-1.46,2.09-.76,5.1.9,7.03,1.66,1.93,4.06,3.02,6.39,4.06,7.69,3.43,17.14,6.96,25.67,6.57,6.35-.29,13.25-1.58,19.58-.64,7.91,1.17,15.76,4.35,23.48,8.13v-33.75c-2.52-.55-5.1-1.15-7.62-1.9Z"/>
        <rect class="cls-16" x="913.06" y="74.77" width="34.45" height="21.61" rx="1.41" ry="1.41" transform="translate(34.64 351.23) rotate(-21.78)"/>
        <rect class="cls-10" x="899.07" y="56.9" width="40.29" height="1.9" rx=".67" ry=".67" transform="translate(44.14 345.15) rotate(-21.78)"/>
        <path class="cls-18" d="M941.98,119.02s-.04,0-.05,0c-7.98-.86-16-2.21-23.83-3.99-.27-.06-.44-.33-.38-.6.06-.27.33-.44.6-.38,7.79,1.78,15.77,3.11,23.71,3.97.28.03.48.28.45.55-.03.26-.25.45-.5.45Z"/>
        <path class="cls-18" d="M941.58,129.12s-.02,0-.02,0c-6.94-.33-13.79-1.66-20.35-3.95-.26-.09-.4-.38-.31-.64.09-.26.38-.4.64-.31,6.47,2.26,13.23,3.57,20.07,3.89.28.01.49.25.48.53-.01.27-.24.48-.5.48Z"/>
        <path class="cls-18" d="M942.42,139.62s-.04,0-.06,0c-6.13-.71-12.27-1.86-18.23-3.43-.27-.07-.43-.34-.36-.61.07-.27.35-.43.61-.36,5.92,1.55,12.01,2.7,18.1,3.4.28.03.47.28.44.56-.03.26-.25.44-.5.44Z"/>
        <path class="cls-18" d="M940.85,105.81c-4.72,0-9.48-.26-14.17-.78-.28-.03-.48-.28-.44-.55.03-.28.27-.48.55-.44,4.96.55,10.01.8,15,.77,4.35-.03,8.44-.76,12.78-1.53l1.47-.26c.28-.05.53.13.58.41.05.27-.13.53-.41.58l-1.47.26c-4.38.78-8.51,1.51-12.95,1.54-.31,0-.63,0-.94,0Z"/>
      </g>
      <g class="cls-6">
        <path class="cls-11" d="M66.9,97.91c.53-.15,1.13-.29,1.61-.03.5.27.71.88.78,1.44.33,2.54-1.17,5.02-3.12,6.69-1.95,1.67-4.33,2.73-6.53,4.06-2.51,1.52-4.81,3.4-7.43,4.73-.59.3-1.21.58-1.65,1.06-.35.39-.56.88-.77,1.37-1.31,3.09-2.62,6.18-3.93,9.27-2.7,6.37-8.98,8.15-15.56,5.97-1.9-.63-3.87-2.02-3.97-4.03-.05-1.09.47-2.11.96-3.09,1.61-3.21,2.35-6.42,4.66-9.2,2.31-2.77,5.03-5.21,7.98-7.29,5.68-4,12.22-6.6,18.84-8.58,2.7-.81,5.41-1.6,8.12-2.37Z"/>
        <path class="cls-11" d="M32.93,157.99c10.06-1.49,19.19.75,28.79-3.82,4.05-1.93,7.97-4.75,11.23-7.83,3.5-3.3-.52-8.88-2.3-11.89-3.1-5.26-3.77-12.51-5.67-18.45-.5-1.56-1.08-3.2-2.34-4.24-1.35-1.12-3.21-1.34-4.95-1.51-7.77-.78-18.31-.04-24.51,5.34-.86.74-1.53,1.67-2.2,2.58-2.66,3.65-5.83,7.83-9.89,10.02-6.1,3.29-13.82,3.79-20.59,4.8v36.6c6.05-2.15,12.09-4.36,18.1-6.62,4.84-1.82,9.14-4.21,14.33-4.98Z"/>
        <path class="cls-14" d="M46.18,143.78c-.11,0-.23-.04-.31-.13-.17-.17-.16-.45,0-.61,3.07-2.97,4.38-6.88,4.94-9.63.81-3.96.62-8,.37-11.08-.04-.42-.08-.94.13-1.42.14-.33.38-.59.58-.82l5.44-5.93c.16-.18.44-.19.61-.03.18.16.19.44.03.61l-5.44,5.93c-.17.19-.34.37-.42.57-.12.28-.09.65-.06,1.01.26,3.14.45,7.26-.38,11.33-.84,4.12-2.64,7.61-5.19,10.08-.08.08-.19.12-.3.12Z"/>
        <path class="cls-11" d="M82.49,113.91c-.59.82-1.19,1.63-1.78,2.45-1.22,1.68-2.48,3.41-4.22,4.56-1.73,1.15-4.07,1.63-5.91.67-.55-.29-1.05-.71-1.31-1.27-.42-.89-.18-1.95.2-2.86.71-1.71,1.86-3.2,3.15-4.52,1.44-1.48,3.12-2.79,5.08-3.43,1.54-.5,3.55-.63,5.04.14,1.87.98.72,2.91-.26,4.26Z"/>
        <g>
          <path class="cls-13" d="M52.61,159.07h0c-4.21-1.08-6.77-5.42-5.69-9.63l18.26-70.93c1.08-4.21,5.42-6.77,9.63-5.69h0c4.21,1.08,6.77,5.42,5.69,9.63l-18.26,70.93c-1.08,4.21-5.42,6.77-9.63,5.69Z"/>
          <path class="cls-13" d="M82.69,82.95l-19.66-5.06c-1.39-.36-2.23-1.79-1.88-3.18l10.01-38.92c1.07-4.17,5.36-6.7,9.53-5.63l9.55,2.46c4.17,1.07,6.7,5.36,5.63,9.53l-10.01,38.92c-.36,1.39-1.79,2.23-3.18,1.88Z"/>
          <rect class="cls-15" x="59.15" y="75.53" width="20.75" height="37.74" rx="2.61" ry="2.61" transform="translate(-39.22 138.22) rotate(-75.57)"/>
          <rect class="cls-10" x="70.7" y="64.12" width="4.96" height="30.09" rx=".65" ry=".65" transform="translate(-21.71 130.32) rotate(-75.57)"/>
          <rect class="cls-10" x="78.08" y="41.95" width="2.28" height="27.57" rx=".65" ry=".65" transform="translate(5.51 118.56) rotate(-75.57)"/>
        </g>
        <path class="cls-11" d="M78.92,122.08c.84,1.99.13,4.52-1.63,5.79,1.87.6,3.25,2.47,3.27,4.43.02,1.96-1.32,3.86-3.18,4.5,1.42.22,2.44,1.66,2.47,3.1.03,1.43-.76,2.79-1.83,3.75s-2.38,1.59-3.69,2.17c-5.09,2.27-10.66,4.12-16.16,3.19-1.59-.27-3.45-1.13-3.54-2.75-.08-1.54,1.52-2.6,2.98-3.1-1.91.59-4.37.49-5.44-1.21-.7-1.12-.54-2.61.08-3.78.61-1.17,1.61-2.08,2.59-2.97-1.45-.24-2.85-.76-4.1-1.53-.52-.32-1.03-.7-1.31-1.24-.32-.63-.28-1.37-.23-2.08.09-1.28.23-2.68,1.13-3.6.57-.59,1.37-.89,2.14-1.17,5.38-1.95,10.81-3.73,16.3-5.34,3.36-.98,8.34-2.41,10.13,1.86Z"/>
        <path class="cls-11" d="M81.54,114c-1.02.61-2.22.84-3.4,1-2.96.41-5.98.45-8.95.11-.77-.09-1.51-.42-2.04-.99-1.9-2.04-.17-4.2,1.55-5.49,3.15-2.36,6.16-3.05,10.39-3.12.66-.01,1.33.03,1.97.17,2.2.48,2.98,1.71,2.91,3.91-.05,1.79-.87,3.47-2.43,4.41Z"/>
        <path class="cls-14" d="M72.76,115.63c-.44,0-.88-.02-1.31-.04-.24-.02-.42-.22-.4-.46.02-.24.21-.42.46-.4,2.72.19,5.51-.24,8.05-1.23.22-.09.47.02.56.25.09.22-.02.47-.25.56-2.25.88-4.69,1.33-7.11,1.33Z"/>
        <path class="cls-14" d="M54.37,135.33c-.28,0-.57-.01-.86-.04-2.09-.23-4.41-1.65-4.8-3.93-.26-1.53.39-3.21,1.75-4.5,1.13-1.07,2.51-1.73,4.07-2.41.22-.09.47,0,.57.22.1.22,0,.47-.22.57-1.48.65-2.79,1.27-3.82,2.25-1.13,1.07-1.7,2.5-1.49,3.73.32,1.86,2.27,3.03,4.04,3.22,1.96.21,3.99-.47,5.77-1.06l16.5-5.53c.23-.08.47.05.55.27.08.23-.05.47-.27.55l-16.5,5.53c-1.62.54-3.43,1.15-5.28,1.15Z"/>
        <path class="cls-14" d="M55.88,144.17c-.91,0-1.83-.16-2.64-.65-1.4-.85-2.18-2.67-1.9-4.42.25-1.55,1.24-3,2.73-3.96.2-.13.47-.07.6.13.13.2.07.47-.13.6-1.26.81-2.14,2.07-2.35,3.36-.22,1.41.39,2.87,1.5,3.54,1.19.72,2.74.56,4.11.34,6.37-.99,12.5-3,18.22-5.95.21-.11.47-.03.58.19.11.21.03.47-.19.58-5.81,2.99-12.03,5.02-18.48,6.03-.66.1-1.36.19-2.06.19Z"/>
        <path class="cls-14" d="M60.85,150.02c-.25,0-.49,0-.74-.01-1.39-.05-3.14-.25-4.4-1.31-.73-.62-1.2-1.6-1.23-2.56-.02-.77.24-1.47.75-1.95.17-.16.45-.16.61.02.16.17.16.45-.01.61-.42.4-.49.93-.48,1.3.02.71.38,1.47.92,1.93,1.05.89,2.55,1.06,3.88,1.1,3.15.11,6.39-.54,10.52-2.11.22-.08.47.03.56.25.09.22-.03.47-.25.56-3.93,1.49-7.09,2.18-10.12,2.18Z"/>
      </g>
      <text class="cls-2" transform="translate(279.53 123.47) scale(.96 1)"><tspan x="0" y="0">SCL Spotlight</tspan></text>
      <text class="cls-3" transform="translate(276.05 123.47) scale(.96 1)"><tspan x="0" y="0">SCL Spotlight</tspan></text>
    </g>
  </g>
</svg>